<svg xmlns="http://www.w3.org/2000/svg" viewBox="0 0 180 180">
  <rect width="180" height="180" rx="40" fill="#050A07"/>
  <rect width="180" height="180" rx="40" fill="url(#g)"/>
  <path d="M90 30C90 30 45 55 45 100C45 124.9 65.1 145 90 145C114.9 145 135 124.9 135 100C135 55 90 30 90 30Z" fill="#4ADE80"/>
  <path d="M90 30C90 30 45 55 45 100C45 124.9 65.1 145 90 145C90 145 90 87.5 90 30Z" fill="#22C55E"/>
  <path d="M90 145L90 112M90 112C90 112 67 95 58 78" stroke="#16A34A" stroke-width="8" stroke-linecap="round" fill="none"/>
  <defs>
    <linearGradient id="g" x1="0" y1="0" x2="180" y2="180">
      <stop offset="0%" stop-color="#0a0f0d"/>
      <stop offset="100%" stop-color="#111714"/>
    </linearGradient>
  </defs>
</svg>
